<svg width="507" height="290" viewBox="0 0 507 290" fill="none" xmlns="http://www.w3.org/2000/svg">
<path d="M358.31 174.72C272.243 176.857 186.131 172.954 100.61 163.04C76.55 160.25 54.44 175.81 51.32 197.75L40.13 278.94C30.33 277.56 20.49 276.1 10.75 274.58L52.53 10.75C60.53 12 68.64 13.2 76.63 14.32L65.59 94.41C64.8678 99.5818 65.197 104.846 66.5579 109.888C67.9188 114.929 70.2834 119.644 73.51 123.75C77.1299 128.348 81.6295 132.178 86.7459 135.018C91.8624 137.858 97.4933 139.65 103.31 140.29C187.766 150.084 272.805 153.937 357.8 151.82C407.2 150.59 457.09 147.27 506.35 141.98V132.51C457.02 137.85 407.04 141.18 357.56 142.42C272.979 144.522 188.354 140.686 104.31 130.94C99.7479 130.442 95.3305 129.042 91.3149 126.82C87.2993 124.598 83.7658 121.6 80.92 118C78.4639 114.883 76.6613 111.302 75.6201 107.472C74.5789 103.642 74.3204 99.6419 74.86 95.71L87.31 6.29999L82.65 5.64999C71.65 4.13999 60.48 2.47998 49.43 0.72998L44.78 0L0 282.41L4.64999 283.14C17.5 285.14 30.58 287.14 43.52 288.9L48.18 289.55L60.66 199.11C63.06 182.19 80.49 170.24 99.55 172.43C185.503 182.397 272.048 186.323 358.55 184.18C407.63 182.95 457.24 179.7 506.3 174.52V165.01C457.18 170.22 407.49 173.49 358.31 174.72Z" fill="#C5B7F1"/>
</svg>
