<svg width="65" height="65" viewBox="0 0 65 65" fill="none" xmlns="http://www.w3.org/2000/svg">
<g clip-path="url(#clip0_11556_50998)">
<path d="M34.5855 64.9999C34.5005 64.9999 34.4154 64.9999 34.3331 64.9999C34.2206 64.8901 34.0806 64.9505 33.9516 64.934C33.8227 64.9505 33.6827 64.8901 33.5702 64.9999C33.3589 64.9999 33.1476 64.9999 32.9363 64.9999C32.6839 64.8956 32.4287 64.8956 32.1762 64.9999C31.8798 64.9999 31.5835 64.9999 31.2899 64.9999C31.1197 64.8983 30.9523 64.8983 30.7822 64.9999C30.6121 64.9999 30.4447 64.9999 30.2745 64.9999C28.7488 64.8462 27.2203 64.7446 25.7138 64.4096C20.5466 63.2592 15.92 61.0134 11.8423 57.6419C10.8324 56.8073 9.85003 55.9425 8.94721 54.9925C8.65359 54.685 8.31881 54.556 7.89347 54.5038C4.18616 54.0398 0.959077 51.3355 0.187979 47.4561C-0.182477 45.5919 -0.0562477 43.7057 0.917915 41.9815C1.15117 41.5697 1.18684 41.1661 1.0661 40.7049C0.418485 38.2641 0.138585 35.7849 0.0919348 33.2535C0.0260759 29.7393 0.393788 26.3047 1.45302 22.9496C2.89094 18.3921 5.19051 14.3315 8.38467 10.7623C11.2001 7.61595 14.515 5.15048 18.269 3.27255C21.5839 1.61426 25.0991 0.532529 28.7927 0.194831C32.5439 -0.148358 36.2924 -0.0961934 39.9887 0.798844C44.4836 1.88881 48.5915 3.78596 52.2741 6.59187C55.5177 9.06558 58.2234 12.0307 60.3501 15.5093C62.7375 19.4162 64.2797 23.636 64.8532 28.1908C64.93 28.7921 64.8861 29.4043 64.9986 30.0029C64.9986 30.1731 64.9986 30.3406 64.9986 30.5108C64.9053 30.5959 64.941 30.7085 64.9328 30.81C64.9547 30.9638 64.8779 31.1313 64.9986 31.2713C64.9986 32.073 64.9986 32.8774 64.9986 33.6791C64.8916 33.7862 64.9492 33.9235 64.9328 34.047C64.9328 34.1239 64.9328 34.2007 64.9328 34.2776C64.9383 34.3765 64.9108 34.4835 64.9986 34.5659C64.9986 34.7773 64.9986 34.9887 64.9986 35.2001C64.8559 36.0485 64.8861 36.9161 64.7434 37.7644C63.7199 43.7991 61.2447 49.1473 57.2465 53.79C53.8822 57.6996 49.8182 60.651 45.0653 62.636C42.4282 63.7397 39.6841 64.5002 36.8357 64.8407C36.0921 64.9368 35.3319 64.8846 34.5855 64.9999Z" fill="#C5B7F1"/>
<path d="M12.841 53.6061C13.796 53.0487 14.7152 52.4694 15.4754 51.665C17.7804 49.2325 18.9028 45.3613 16.8803 41.7509C15.3793 39.0713 13.4282 36.7596 11.329 34.5577C10.717 33.9153 10.053 33.325 9.44378 32.6798C9.15015 32.3695 8.97453 32.3613 8.65621 32.6661C7.17713 34.0855 5.75842 35.5598 4.44124 37.133C4.36166 37.2263 4.28208 37.3197 4.17781 37.4432C2.03739 26.8565 6.81216 12.7226 20.3297 6.38326C33.7841 0.0740724 49.3543 4.82381 57.2573 17.4916C64.7845 29.5554 62.0266 45.861 50.9321 54.88C39.5934 64.0994 23.3043 63.5723 12.841 53.6061Z" fill="#1E1932"/>
<path d="M9.05091 37.2292C10.8346 39.1731 12.503 41.0922 13.7626 43.3462C14.7724 45.1528 14.6325 46.8935 13.5156 48.5325C12.3329 50.2649 10.6151 51.1051 8.50758 50.8662C5.71955 50.5505 3.7822 48.4447 3.65597 45.7403C3.60383 44.6229 4.12247 43.6977 4.65483 42.7917C5.86224 40.7408 7.41542 38.9617 9.05091 37.2292Z" fill="#1E1932"/>
<path d="M44.1186 44.7188C43.9923 44.8094 43.8826 44.8753 43.7893 44.9604C43.1472 45.5425 42.4941 46.1108 41.8794 46.7203C41.5775 47.0196 41.4101 46.9674 41.1357 46.6901C39.2944 44.8424 37.0881 43.681 34.5032 43.2912C30.5544 42.6954 27.116 43.7854 24.2237 46.5281C23.7737 46.9564 23.5322 47.0113 23.1014 46.5473C22.5882 45.99 22.001 45.4986 21.4247 45.0044C21.1695 44.7847 21.0981 44.6584 21.3835 44.3784C25.2555 40.5621 29.8684 39.0082 35.2468 39.8703C38.6029 40.4084 41.4376 41.9843 43.814 44.4004C43.8963 44.4827 43.9786 44.5706 44.1186 44.7188Z" fill="#C5B7F1"/>
<path d="M25.844 18.351C25.855 18.5405 25.6903 18.5569 25.5586 18.6146C22.0845 20.1246 18.6105 21.6347 15.1364 23.1447C14.9224 23.238 14.7824 23.2737 14.6644 22.9772C14.3132 22.0987 13.9318 21.2283 13.5366 20.369C13.4076 20.0917 13.5119 20.0148 13.7369 19.916C17.2137 18.4169 20.6905 16.9096 24.1646 15.4024C24.3375 15.3282 24.4884 15.1992 24.6091 15.493C24.9906 16.4045 25.3967 17.3077 25.7919 18.2165C25.8111 18.2549 25.822 18.2961 25.844 18.351Z" fill="#C5B7F1"/>
<path d="M51.7018 20.2043C51.6661 20.2866 51.6222 20.3827 51.581 20.4788C51.2325 21.2915 50.8703 22.0987 50.541 22.9196C50.4148 23.2326 50.2666 23.249 49.9867 23.1255C46.5538 21.6264 43.1209 20.1301 39.6798 18.6531C39.345 18.5103 39.2874 18.3895 39.4383 18.0655C39.8115 17.2638 40.1682 16.4539 40.5003 15.6357C40.6265 15.3227 40.7418 15.2788 41.0518 15.4133C44.4847 16.9124 47.9259 18.395 51.3588 19.8885C51.4905 19.9434 51.7155 19.9407 51.7018 20.2043Z" fill="#C5B7F1"/>
<path d="M25.2381 28.8141C25.2409 30.747 23.6849 32.3064 21.7531 32.3092C19.8267 32.3119 18.2488 30.7442 18.2461 28.8251C18.2434 26.9142 19.8322 25.3218 21.7449 25.3191C23.663 25.3163 25.2354 26.8895 25.2381 28.8141Z" fill="#C5B7F1"/>
<path d="M46.9194 28.8306C46.9112 30.7635 45.3498 32.3147 43.4179 32.3092C41.497 32.3037 39.9137 30.7168 39.9219 28.8087C39.9329 26.895 41.53 25.3136 43.4426 25.3191C45.3608 25.3246 46.9276 26.9088 46.9194 28.8306Z" fill="#C5B7F1"/>
</g>
<defs>
<clipPath id="clip0_11556_50998">
<rect width="65" height="65" fill="white"/>
</clipPath>
</defs>
</svg>
