<svg width="299" height="50" viewBox="0 0 299 50" fill="none" xmlns="http://www.w3.org/2000/svg">
<g clip-path="url(#clip0_11556_50990)">
<path d="M99.5559 50L97.3898 34.3713C96.9782 31.4524 93.9673 29.3891 90.6747 29.7682C81.1491 30.8513 71.4665 31.5553 61.903 31.7936C46.9694 32.1694 32.028 31.4981 17.1883 29.7845C13.9012 29.4054 10.8903 31.4686 10.4733 34.3875L8.30716 50.0162L7.50569 49.9025C5.26914 49.5938 3.01094 49.2581 0.790642 48.9061L0 48.7653L7.7223 0L8.52377 0.124553C10.4354 0.427813 12.3633 0.714827 14.2641 0.974764L15.0655 1.08307L12.9319 16.5277C12.8389 17.2071 12.884 17.8984 13.0645 18.56C13.2451 19.2216 13.5573 19.8399 13.9825 20.378C14.473 20.9993 15.0824 21.5166 15.7751 21.8997C16.4678 22.2828 17.2299 22.5239 18.0169 22.6091C32.5252 24.2925 47.1339 24.9548 61.7351 24.5911C71.0928 24.3583 80.5534 23.6922 89.857 22.6091C90.645 22.5246 91.4081 22.2838 92.1018 21.9007C92.7955 21.5176 93.4058 20.9999 93.8969 20.378C94.321 19.8405 94.6321 19.2229 94.8117 18.5622C94.9913 17.9015 95.0357 17.2113 94.942 16.5331L92.8084 1.08307L93.6153 0.969349C95.5215 0.709412 97.4548 0.427813 99.3502 0.119138L100.152 0L107.879 48.7653L107.072 48.8898C104.852 49.2418 102.594 49.5776 100.363 49.8863L99.5559 50ZM1.85747 47.4115C3.54164 47.6768 5.24207 47.953 6.93166 48.1642L8.86494 34.1492C9.40648 30.3585 13.2243 27.6508 17.3779 28.1544C32.145 29.8677 47.0143 30.5408 61.8759 30.169C71.3907 29.9307 81.0192 29.2538 90.5014 28.1544C94.655 27.6725 98.4729 30.3585 99.009 34.1438L100.948 48.1642C102.637 47.9259 104.338 47.6768 106.016 47.4115L98.8032 1.85747C97.4223 2.07408 96.0305 2.27987 94.6388 2.47482L96.5504 16.3056C96.6747 17.1984 96.6175 18.107 96.382 18.9771C96.1466 19.8472 95.7379 20.6608 95.1803 21.369C94.5574 22.1623 93.7826 22.8233 92.901 23.3133C92.0195 23.8034 91.0491 24.1126 90.0466 24.2229C80.6942 25.306 71.1795 25.9829 61.7784 26.2157C47.1013 26.5814 32.4166 25.9155 17.8328 24.2229C16.8293 24.1133 15.8578 23.8044 14.9753 23.3143C14.0928 22.8242 13.3171 22.1629 12.6936 21.369C12.1359 20.6598 11.7271 19.8453 11.4917 18.9743C11.2563 18.1034 11.1991 17.1938 11.3235 16.3002L13.2351 2.47482C11.8542 2.27987 10.4625 2.07408 9.07614 1.85747L1.85747 47.4115Z" fill="#FBFBFB"/>
<path d="M150.488 31.4849H121.906C122.047 34.9544 122.985 37.5122 124.722 39.1585C125.59 39.9765 126.61 40.6152 127.726 41.038C128.841 41.4608 130.028 41.6594 131.22 41.6225C133.267 41.6991 135.282 41.1059 136.961 39.9329C138.471 38.8255 139.512 37.1932 139.879 35.3569H150.369C149.875 38.0293 148.74 40.5418 147.06 42.6785C145.332 44.8646 143.103 46.603 140.562 47.7473C137.552 49.0457 134.294 49.6651 131.018 49.5612C127.742 49.4573 124.529 48.6327 121.608 47.1462C118.682 45.5577 116.284 43.1483 114.709 40.2145C113.002 36.9365 112.154 33.279 112.245 29.5842C112.157 25.8775 113.004 22.2085 114.709 18.9159C116.268 15.9707 118.67 13.5573 121.608 11.9842C124.732 10.3471 128.219 9.52383 131.746 9.59066C135.263 9.50958 138.743 10.3338 141.851 11.9842C144.658 13.5002 146.977 15.7818 148.539 18.5639C150.691 22.5062 151.4 27.076 150.542 31.4849H150.488ZM138.347 19.869C136.529 18.2201 134.145 17.3373 131.691 17.405C129.207 17.3347 126.789 18.2161 124.933 19.869C123.103 21.5117 122.094 23.9287 121.906 27.1202H140.86C140.99 23.9251 140.152 21.5081 138.347 19.869Z" fill="#FBFBFB"/>
<path d="M187.979 13.6738C191.329 16.3923 193.428 20.1 194.277 24.7969H183.787C183.441 22.8786 182.417 21.1488 180.901 19.9231C179.265 18.6827 177.25 18.049 175.198 18.1306C173.955 18.1071 172.722 18.3562 171.585 18.8604C170.448 19.3647 169.436 20.1119 168.619 21.0495C166.861 22.999 165.98 25.8511 165.976 29.6058C165.972 33.3604 166.853 36.2107 168.619 38.1566C169.435 39.0958 170.447 39.8444 171.584 40.3497C172.721 40.855 173.955 41.1046 175.198 41.0809C177.25 41.1605 179.266 40.525 180.901 39.283C182.417 38.0574 183.441 36.3275 183.787 34.4092H194.277C193.432 39.1025 191.333 42.8102 187.979 45.5323C184.625 48.2545 180.435 49.6155 175.41 49.6155C171.879 49.6804 168.39 48.8435 165.272 47.184C162.346 45.5956 159.948 43.1862 158.373 40.2524C156.666 36.9743 155.818 33.3168 155.909 29.622C155.821 25.9154 156.668 22.2463 158.373 18.9538C159.932 16.0085 162.334 13.5951 165.272 12.0221C168.396 10.3849 171.883 9.5617 175.41 9.62852C180.432 9.60325 184.621 10.9517 187.979 13.6738Z" fill="#FBFBFB"/>
<path d="M222.153 40.5665V49.0849H216.944C212.579 49.0849 209.234 48.0289 206.909 45.9169C204.584 43.8049 203.423 40.2849 203.427 35.3569V18.461H198.012V10.0835H203.427V0.438721H213.364V10.0835H222.083V18.461H213.364V35.4977C213.364 37.3715 213.74 38.6856 214.491 39.4401C215.243 40.1875 216.511 40.5665 218.281 40.5665H222.153Z" fill="#FBFBFB"/>
<path d="M257.529 11.9841C260.533 13.5541 263.016 15.962 264.677 18.9157C266.471 22.1799 267.37 25.8604 267.282 29.584C267.373 33.2958 266.474 36.9649 264.677 40.2143C263 43.1555 260.521 45.5593 257.529 47.146C254.351 48.7446 250.843 49.5773 247.286 49.5773C243.729 49.5773 240.221 48.7446 237.043 47.146C234.051 45.5614 231.574 43.1569 229.9 40.2143C228.164 37.207 227.295 33.6636 227.295 29.584C227.205 25.8601 228.104 22.1789 229.9 18.9157C231.558 15.9611 234.04 13.5526 237.043 11.9841C240.228 10.4095 243.733 9.59033 247.286 9.59033C250.839 9.59033 254.344 10.4095 257.529 11.9841ZM240.249 21.1198C238.321 23.0693 237.359 25.8979 237.362 29.6057C237.366 33.3134 238.328 36.1402 240.249 38.0861C241.172 39.0129 242.269 39.7482 243.477 40.2499C244.685 40.7517 245.981 41.01 247.289 41.01C248.597 41.01 249.892 40.7517 251.1 40.2499C252.308 39.7482 253.406 39.0129 254.329 38.0861C256.264 36.1294 257.231 33.2953 257.231 29.584C257.231 25.8727 256.264 23.0513 254.329 21.1198C253.405 20.1943 252.307 19.4601 251.099 18.9592C249.891 18.4583 248.597 18.2004 247.289 18.2004C245.981 18.2004 244.686 18.4583 243.478 18.9592C242.27 19.4601 241.173 20.1943 240.249 21.1198Z" fill="#FBFBFB"/>
<path d="M290.019 11.6648C292.445 10.2185 295.222 9.46893 298.045 9.49865V20.1507H295.137C287.859 20.1507 284.221 23.5298 284.225 30.2882V49.0849H274.32V10.0943H284.247V17.5459C285.635 15.1233 287.623 13.0982 290.019 11.6648Z" fill="#FBFBFB"/>
</g>
<defs>
<clipPath id="clip0_11556_50990">
<rect width="298.045" height="50" fill="white"/>
</clipPath>
</defs>
</svg>
