<svg width="512" height="320" viewBox="0 0 512 320" fill="none" xmlns="http://www.w3.org/2000/svg">
<path d="M127.042 168.98C102.09 166.385 79.4654 183.084 76.5863 205.945L66.3609 290.465C56.2117 289.377 45.9942 287.89 35.8684 286.469L74.711 11.6597C83.0464 12.8203 91.4077 13.9065 99.7028 14.9329L89.5895 98.3094C88.9269 103.699 89.3594 109.161 90.8539 114.378C92.3484 119.594 94.8776 124.451 98.2953 128.656C102.113 133.363 106.83 137.26 112.167 140.122C117.506 142.976 123.364 144.735 129.385 145.282C149.609 147.279 169.858 148.934 190.118 150.27C190.061 147 189.996 143.728 189.923 140.453C170.041 139.133 150.176 137.513 130.333 135.559C125.61 135.132 121.015 133.762 116.823 131.53C112.631 129.297 108.929 126.25 105.924 122.568C103.324 119.373 101.388 115.688 100.244 111.73C99.1003 107.772 98.7586 103.615 99.2487 99.5159L110.545 6.36363L105.729 5.7991C94.3086 4.43689 82.7212 2.9113 71.2352 1.29304L66.415 0.62945L24.8642 294.814L29.6168 295.578C42.9627 297.464 56.5297 299.24 69.9719 300.862L74.7888 301.463L86.2487 207.215C88.4608 189.608 106.311 176.879 126.06 178.811C147.322 180.895 168.616 182.612 189.926 183.985C190.048 180.711 190.13 177.419 190.183 174.138C169.121 172.769 148.067 171.054 127.042 168.98Z" fill="#C5B7F1"/>
<path d="M551.788 -55.1202L547.526 -52.7834C537.501 -47.113 527.215 -41.5177 517.035 -36.1039L512.736 -33.7899L556.885 49.0313C558.824 52.6619 560.01 56.6519 560.376 60.7571C560.741 64.8623 560.279 68.9921 559.006 72.9062C557.537 77.4384 555.181 81.6266 552.079 85.2187C548.972 88.8221 545.178 91.7605 540.921 93.8714C490.837 119.268 439 142.632 386.843 163.339C323.992 188.288 259.829 209.782 194.671 227.753C195.823 230.823 196.972 233.884 198.108 236.96C203.401 235.5 208.696 234.02 213.978 232.508C273.759 215.424 332.661 195.378 390.475 172.424C442.878 151.63 494.991 128.093 545.352 102.597C550.765 99.8947 555.58 96.1375 559.52 91.5458C563.46 86.9541 566.447 81.6144 568.296 75.8411C569.958 70.6828 570.562 65.2467 570.08 59.8426C569.59 54.4417 568.023 49.1906 565.467 44.4098L525.937 -29.731C533.362 -33.7142 540.763 -37.7623 548.076 -41.8418L683.434 200.444C674.544 205.419 665.497 210.353 656.483 215.199L616.409 140.048C605.516 119.785 578.454 112.523 556.085 123.856C505.028 149.716 452.27 173.486 399.244 194.542C336.049 219.635 271.551 241.297 206.057 259.455C207.099 262.577 208.095 265.699 209.07 268.838C274.74 250.583 339.41 228.835 402.779 203.665C456.08 182.502 509.087 158.466 560.424 132.608C578.154 123.648 599.385 129.061 607.779 144.688L652.481 228.451L656.78 226.137C668.691 219.767 680.697 213.192 692.451 206.613L696.736 204.239L551.788 -55.1202Z" fill="#C5B7F1"/>
</svg>
